<svg height='100px' width='100px'  fill="#000000" xmlns="http://www.w3.org/2000/svg" xmlns:xlink="http://www.w3.org/1999/xlink" version="1.1" x="0px" y="0px" viewBox="0 0 100 100" enable-background="new 0 0 100 100" xml:space="preserve"><g display="none"><rect x="-300.877" y="-997.172" display="inline" fill="#000000" width="1370.931" height="1263.231"></rect></g><g><g><circle cx="21.829" cy="42.649" r="8.21"></circle><circle cx="50.021" cy="46.793" r="10.916"></circle><path d="M55.121,66.159h-9.409c-5.942,0-11.261,3.951-13.014,9.628v15.749C38.028,93.764,43.872,95,50,95    c6.464,0,12.609-1.381,18.17-3.846V75.823C66.422,70.125,61.088,66.159,55.121,66.159z"></path><circle cx="78.212" cy="43.667" r="8.21"></circle><path d="M91.082,68.328c-1.333-4.003-5.127-6.771-9.365-6.771H74.64c-3.716,0-7.092,2.139-8.759,5.371    c2.515,2.097,4.44,4.915,5.394,8.196l0.063,0.407v14.077C80.041,84.901,87.017,77.404,91.082,68.328z"></path><path d="M50,5C25.187,5,5,25.187,5,50c0,4.763,0.75,9.353,2.128,13.665c2.326-3.818,6.531-6.293,11.128-6.293h7.077    c5.228,0,9.942,3.189,11.978,7.915c2.504-1.459,5.384-2.295,8.4-2.295h9.409c2.91,0,5.694,0.774,8.136,2.134    c2.263-4.068,6.611-6.735,11.383-6.735h7.077c4.466,0,8.557,2.329,10.925,5.952C94.163,59.834,95,55.014,95,50    C95,25.187,74.813,5,50,5z M21.829,54.026c-6.273,0-11.377-5.104-11.377-11.377c0-6.273,5.104-11.377,11.377-11.377    c6.274,0,11.377,5.104,11.377,11.377C33.206,48.922,28.102,54.026,21.829,54.026z M50.021,60.876    c-7.765,0-14.083-6.318-14.083-14.083S42.255,32.71,50.021,32.71c7.766,0,14.083,6.318,14.083,14.083S57.786,60.876,50.021,60.876    z M89.59,43.667c0,6.273-5.104,11.377-11.377,11.377c-6.273,0-11.377-5.104-11.377-11.377c0-6.274,5.104-11.377,11.377-11.377    C84.486,32.29,89.59,37.394,89.59,43.667z"></path><path d="M25.333,60.539h-7.077c-4.346,0-8.236,2.921-9.459,7.102l-0.22-0.064c4.139,9.717,11.605,17.681,20.953,22.478V75.532    l0.064-0.444c0.915-3.13,2.71-5.844,5.061-7.905C33.285,63.248,29.527,60.539,25.333,60.539z"></path></g></g></svg>