<svg height='100px' width='100px'  fill="#000000" xmlns="http://www.w3.org/2000/svg" xmlns:xlink="http://www.w3.org/1999/xlink" version="1.1" x="0px" y="0px" viewBox="0 0 100 100" style="enable-background:new 0 0 100 100;" xml:space="preserve"><path d="M92.5,10h-65c-1.4,0-2.5,1.1-2.5,2.5s1.1,2.5,2.5,2.5h65c1.4,0,2.5-1.1,2.5-2.5S93.9,10,92.5,10z"></path><path d="M27.5,30h55c1.4,0,2.5-1.1,2.5-2.5S83.9,25,82.5,25h-55c-1.4,0-2.5,1.1-2.5,2.5S26.1,30,27.5,30z"></path><path d="M92.5,40h-65c-1.4,0-2.5,1.1-2.5,2.5s1.1,2.5,2.5,2.5h65c1.4,0,2.5-1.1,2.5-2.5S93.9,40,92.5,40z"></path><path d="M27.5,60h55c1.4,0,2.5-1.1,2.5-2.5S83.9,55,82.5,55h-55c-1.4,0-2.5,1.1-2.5,2.5S26.1,60,27.5,60z"></path><path d="M92.5,70h-65c-1.4,0-2.5,1.1-2.5,2.5v20c0,1.4,1.1,2.5,2.5,2.5h65c1.4,0,2.5-1.1,2.5-2.5v-20C95,71.1,93.9,70,92.5,70z   M90,90H30V75h60V90z"></path><path d="M5.7,94.3C6.2,94.8,6.9,95,7.5,95s1.3-0.2,1.8-0.7l10-10c1-1,1-2.6,0-3.5l-10-10c-1-1-2.6-1-3.5,0c-1,1-1,2.6,0,3.5l8.2,8.2  l-8.2,8.2C4.8,91.7,4.8,93.3,5.7,94.3z"></path></svg>