<svg height='100px' width='100px'  fill="#000000" xmlns="http://www.w3.org/2000/svg" xmlns:xlink="http://www.w3.org/1999/xlink" version="1.1" x="0px" y="0px" viewBox="0 0 100 100" enable-background="new 0 0 100 100" xml:space="preserve"><g><path fill="none" d="M71.227,56.801c-2.445-1.111-5.303-2.209-7.748-3.32c0.134-2.031,0.765-4.167,0.899-6.198   c1.217-0.892,2.067-2.269,2.319-3.757c0.093-0.55,0.1-1.146-0.175-1.632c-0.275-0.486-0.591-1.006-1.1-0.778   c0.409-2.127,0.728-4.327,0.281-6.447c-0.447-2.119-1.804-4.164-3.848-4.88c-1.099-0.385-2.279-0.36-3.449-0.24   c-1.17-0.12-2.35-0.145-3.449,0.24c-0.654,0.229-1.229,0.605-1.734,1.065c0.29,0.626,0.517,1.301,0.667,2.01   c0.442,2.095,0.236,4.199-0.087,6.096c0.283,0.25,0.551,0.597,0.801,1.04c0.392,0.694,0.499,1.521,0.327,2.529   c-0.282,1.673-1.16,3.223-2.439,4.335c-0.014,0.14-0.04,0.28-0.057,0.421c0.114,1.715,0.565,3.501,0.788,5.239   c0.543,0.229,1.089,0.457,1.629,0.682c1.362,0.568,2.771,1.154,4.058,1.74c2.027,0.921,4.548,2.066,6.002,4.366   c1.642,2.596,1.365,5.829,1.162,8.191c-0.011,0.143-0.046,0.276-0.099,0.4h11.118c0-0.068,0.32-0.15,0.326-0.218   c0.208-2.436,0.371-5.07-0.935-7.136C75.316,58.703,73.216,57.705,71.227,56.801z"></path><path fill="none" d="M56.856,56.098c-2.537-1.153-5.505-2.293-8.042-3.446c0.139-2.108,0.794-4.325,0.933-6.434   c1.263-0.926,2.146-2.355,2.407-3.899c0.097-0.571,0.104-1.19-0.181-1.694c-0.285-0.504-0.613-1.044-1.142-0.807   c0.425-2.207,0.756-4.492,0.291-6.691s-1.872-4.322-3.994-5.066c-1.141-0.4-2.366-0.373-3.58-0.249   c-1.214-0.125-2.439-0.151-3.58,0.249c-2.121,0.744-3.529,2.866-3.994,5.066s-0.134,4.484,0.291,6.691   c-0.529-0.237-0.857,0.303-1.142,0.807c-0.285,0.504-0.278,1.123-0.181,1.694c0.261,1.544,1.144,2.974,2.407,3.899   c0.139,2.109,0.794,4.325,0.933,6.434c-2.537,1.153-5.505,2.293-8.042,3.446c-2.064,0.938-4.244,1.974-5.457,3.89   c-1.356,2.144-1.187,4.879-0.971,7.407c0.006,0.07,0.338,0.156,0.338,0.226h19.397h19.397c0-0.07,0.332-0.156,0.338-0.226   c0.216-2.528,0.385-5.263-0.971-7.407C61.101,58.072,58.921,57.036,56.856,56.098z"></path><path d="M50,5C25.147,5,5,25.147,5,50c0,24.853,20.147,45,45,45c24.853,0,45-20.147,45-45C95,25.147,74.853,5,50,5z M63.284,67.395   c-0.006,0.07-0.338,0.156-0.338,0.226H43.548H24.151c0-0.07-0.332-0.156-0.338-0.226c-0.216-2.528-0.385-5.263,0.971-7.407   c1.212-1.916,3.392-2.952,5.457-3.89c2.537-1.153,5.505-2.293,8.042-3.446c-0.139-2.108-0.794-4.325-0.933-6.434   c-1.263-0.926-2.146-2.355-2.407-3.899c-0.097-0.571-0.104-1.19,0.181-1.694c0.285-0.504,0.613-1.044,1.142-0.807   c-0.425-2.207-0.756-4.492-0.291-6.691s1.872-4.322,3.994-5.066c1.141-0.4,2.366-0.373,3.58-0.249   c1.214-0.125,2.439-0.151,3.58,0.249c2.121,0.744,3.529,2.866,3.994,5.066s0.134,4.484-0.291,6.691   c0.529-0.237,0.857,0.303,1.142,0.807c0.285,0.504,0.278,1.123,0.181,1.694c-0.261,1.544-1.144,2.974-2.407,3.899   c-0.139,2.109-0.794,4.325-0.933,6.434c2.537,1.153,5.505,2.293,8.042,3.446c2.064,0.938,4.244,1.974,5.457,3.89   C63.669,62.133,63.5,64.867,63.284,67.395z M77.419,67.685c-0.006,0.067-0.326,0.15-0.326,0.218H65.975   c0.053-0.124,0.087-0.257,0.099-0.4c0.203-2.361,0.48-5.595-1.162-8.191c-1.454-2.299-3.975-3.445-6.002-4.366   c-1.286-0.586-2.696-1.172-4.058-1.74c-0.54-0.225-1.087-0.453-1.629-0.682c-0.223-1.738-0.674-3.524-0.788-5.239   c0.017-0.14,0.043-0.28,0.057-0.421c1.278-1.112,2.156-2.662,2.439-4.335c0.172-1.008,0.065-1.835-0.327-2.529   c-0.25-0.443-0.518-0.79-0.801-1.04c0.323-1.898,0.53-4.001,0.087-6.096c-0.15-0.71-0.376-1.384-0.667-2.01   c0.506-0.46,1.081-0.836,1.734-1.065c1.099-0.385,2.279-0.36,3.449-0.24c1.169-0.12,2.35-0.145,3.449,0.24   c2.044,0.716,3.4,2.761,3.848,4.88c0.447,2.119,0.129,4.32-0.281,6.447c0.509-0.228,0.825,0.292,1.1,0.778   c0.275,0.486,0.268,1.081,0.175,1.632c-0.252,1.487-1.102,2.865-2.319,3.757c-0.134,2.031-0.765,4.167-0.899,6.198   c2.444,1.111,5.303,2.209,7.748,3.32c1.989,0.904,4.089,1.902,5.257,3.748C77.791,62.615,77.628,65.249,77.419,67.685z"></path></g></svg>