<svg height='100px' width='100px'  fill="#000000" xmlns="http://www.w3.org/2000/svg" xmlns:xlink="http://www.w3.org/1999/xlink" version="1.1" x="0px" y="0px" viewBox="0 0 100 100" style="enable-background:new 0 0 100 100;" xml:space="preserve"><g style="" display="none"><path style="" d="M13.421,0v0.098V100H50h36.579V0.098V0H13.421z M22.262,91.159V8.841h55.476l0.01,82.318H22.262z    M68.535,20.653v8.841H31.487v-8.841H68.535z M68.535,39.839v8.841H31.487v-8.841H68.535z M68.535,59.293v8.841H31.487v-8.841   H68.535z" display="inline"></path></g><g style="" display="none"><path style="" d="M50.579,39.843h28.087v6.703H50.579V39.843z M50.579,61.092h28.087v-6.703H50.579V61.092z    M50.579,75.841h28.087v-6.702H50.579V75.841z M92.346,24.186V100H36.882V75.814H7.654V0h55.464v24.186H92.346z M36.882,24.186   h19.535L56.415,6.703H14.356v62.409h22.525V51.655H21.351v-6.702h15.531v-8.047H21.351v-6.703h15.531V24.186z M85.651,93.297   l-0.008-62.409H43.585v62.409H85.651z M21.351,22.36h28.087v-6.703H21.351V22.36z" display="inline"></path></g><g style="" display="none"><path style="" d="M13.252,15.15h27.176v6.485H13.252V15.15z M13.252,35.709h27.176v-6.486H13.252V35.709z    M13.252,49.98h27.176v-6.485H13.252V49.98z M100,31.333L74.195,100L26.648,82.132l-11.653-0.906l0.611-7.871H0V0h53.666v10.655   l20.517,1.594l-0.708,9.115L100,31.333z M47.187,66.871L47.18,6.485H6.485v60.386H47.187z M21.963,75.264l40.579,3.153   l4.671-60.205l-13.548-1.053v8.691l6.146,0.478l-0.502,6.466l-5.644-0.438v7.611l5.056,0.393l-0.502,6.466l-4.554-0.354v7.81   l3.95,0.307l-0.502,6.466l-3.448-0.268v12.57H22.111L21.963,75.264z M91.647,35.122l-18.697-7.026l-0.699,8.994l10.028,3.769   l-2.282,6.071l-8.27-3.107l-0.612,7.876l6.213,2.335l-2.282,6.071l-4.454-1.674l-0.628,8.081l2.344,0.881l-2.281,6.071l-0.585-0.22   l-0.943,12.142l-18.608-1.446l20.522,7.712L91.647,35.122z" display="inline"></path></g><g style="" display="none"><path style="" d="M92.06,83.62c-4.594-2.699-8.976-5.127-13.122-7.311c4.158-2.162,8.55-4.568,13.159-7.244   c6.968-4.046,9.875-10.26,6.491-13.88c-3.383-3.62-11.775-3.274-18.743,0.772c-5.95,3.454-8.938,8.49-7.579,12.141   c-1.371,0.841-2.823,1.751-4.329,2.712C46.282,60.566,33.359,57.974,33.359,57.974s13.335,9.604,26.233,18.286   C46.65,84.875,33.266,94.411,33.266,94.411s12.937-2.526,34.644-12.658c1.5,0.968,2.948,1.886,4.315,2.733   c-1.378,3.645,1.584,8.695,7.516,12.18c6.947,4.082,15.337,4.471,18.739,0.868S99.008,87.701,92.06,83.62z M68.431,78.629   c-1.644-0.004-2.974-1.059-2.971-2.354c0.003-1.297,1.339-2.344,2.983-2.34c1.644,0.004,2.975,1.059,2.971,2.355   C71.41,77.586,70.075,78.634,68.431,78.629z M81.982,58.243c4.537-2.634,10.001-2.859,12.204-0.503   c2.203,2.357,0.311,6.403-4.226,9.038c-4.538,2.635-10.001,2.86-12.204,0.503C75.553,64.924,77.444,60.878,81.982,58.243z    M94.091,94.955c-2.215,2.346-7.678,2.092-12.201-0.565c-4.524-2.658-6.396-6.713-4.181-9.06c2.215-2.346,7.678-2.092,12.202,0.565   C94.435,88.553,96.306,92.609,94.091,94.955z M42.189,22.562H13.83v-6.767h28.359V22.562z M42.189,37.249H13.83v-6.768h28.359   V37.249z M13.83,45.373h28.359v6.768H13.83V45.373z M45.595,76.549H0V0h56.001v59.375l-6.761-2.614L49.233,6.768H6.768v63.014   h29.478L45.595,76.549z" display="inline"></path></g><g style="" display="none"><path style="" d="M55.113,29.494H18.066v-8.841h37.047V29.494z M55.113,39.839H18.066v8.841h37.047V39.839z    M18.066,67.865h20.777v-8.841H18.066V67.865z M100,65.034H80.16V45.202H65.034v19.832H45.198v15.134h19.836V100H80.16V80.168H100   V65.034z M8.841,8.841h55.476V38.52h8.841V0H0v100h57.695v-8.841H8.841V8.841z" display="inline"></path></g><g style="" display="none"><path style="" d="M55.113,29.494H18.066v-8.841h37.047V29.494z M55.113,39.839H18.066v8.841h37.047V39.839z    M18.066,67.865h20.777v-8.841H18.066V67.865z M100,65.034H45.197v15.134H100V65.034z M8.841,8.841h55.476v44.216h8.841V0H0v100   h72.599v-8.841H8.841V8.841z" display="inline"></path></g><g style="" display="none"><path style="" d="M55.103,29.494H18.055v-8.84h37.047V29.494z M30.952,39.839H18.055v8.841h7.913   C27.114,45.434,28.813,42.449,30.952,39.839z M18.055,68.134h7.86c-0.965-2.781-1.526-5.751-1.609-8.841h-6.25V68.134z    M64.326,91.159H8.841V8.841h55.476l0.003,22.17c3.267,1.26,6.253,3.085,8.838,5.356V0H0v100h73.157V80.598   c-2.583,2.27-5.566,4.094-8.832,5.354L64.326,91.159z M98.486,87.756l-2.063-1.587l-4.732,6.149l2.063,1.587   c1.697,1.306,4.133,0.99,5.442-0.709C100.5,91.498,100.185,89.062,98.486,87.756z M95.321,85.312l-4.731,6.149l-20.205-15.47   c-4.364,4.155-10.269,6.705-16.771,6.705c-13.434,0-24.325-10.891-24.325-24.325c0-13.434,10.891-24.325,24.325-24.325   c13.435,0,24.325,10.892,24.325,24.325c0,4.138-1.034,8.034-2.857,11.445L95.321,85.312z M70.377,58.37   c0-9.257-7.504-16.762-16.762-16.762c-9.257,0-16.762,7.505-16.762,16.762c0,9.258,7.504,16.762,16.762,16.762   C62.873,75.132,70.377,67.628,70.377,58.37z" display="inline"></path></g><g style="" display="none"><path style="" d="M55.698,29.494H18.651v-8.84h37.047V29.494z M55.698,39.839H18.651v8.841h37.047V39.839z    M18.651,67.865h20.777v-8.841H18.651V67.865z M100,89.298L85.971,75.269l14.023-14.023L89.298,50.55L75.275,64.573L61.249,50.547   L50.547,61.249l14.026,14.026L50.55,89.298l10.696,10.696l14.023-14.023L89.298,100L100,89.298z M8.841,8.841h55.476v34.448   l8.841,8.661V0H0v100h50.36l-8.73-8.841H8.841V8.841z" display="inline"></path></g><g style="" display="none"><path style="" d="M55.698,29.494H18.651v-8.84h37.047V29.494z M55.698,39.839H18.651v8.841h37.047V39.839z    M18.651,67.865h17.223l8.845-8.841H18.651V67.865z M8.841,8.841h55.476v53.981l8.841-9.504V0H0v100h50.36l-8.73-8.841H8.841V8.841   z M59.023,78.293L46.418,65.952L35.68,76.92L59.253,100L100,58.551L89.032,47.812L59.023,78.293z" display="inline"></path></g><g style="" display="none"><path style="" d="M73.157,31.836c-3.346,1.193-6.354,3.098-8.841,5.535V8.841H8.841v82.318h54.665V100H0V0h73.157   V31.836z M55.698,20.653H18.651v8.84h37.047V20.653z M55.698,39.839H18.651v8.841h37.047V39.839z M18.651,67.865h37.047v-8.841   H18.651V67.865z M77.746,83.235c-4.629,0-8.382,3.753-8.382,8.382c0,4.63,3.753,8.383,8.382,8.383s8.383-3.753,8.383-8.383   C86.129,86.988,82.375,83.235,77.746,83.235z M83.235,79.235v-5.902C92.621,72.483,100,64.57,100,54.966   c0-10.169-8.273-18.442-18.442-18.442c-10.169,0-18.442,8.273-18.442,18.442h11.36c0-3.904,3.177-7.081,7.082-7.081   s7.082,3.177,7.082,7.081c0,3.905-3.177,7.082-7.082,7.082h-9.684v17.187H83.235L83.235,79.235z" display="inline"></path></g><g style="" display="none"><path style="" d="M49.503,100H0V0h73.157v33.747c-1.057-0.093-2.127-0.143-3.208-0.143   c-1.916,0-3.796,0.149-5.632,0.435V8.841H8.841v82.318h31.593C42.917,94.608,45.989,97.604,49.503,100z M56.001,20.424H18.954   v8.841h37.047V20.424z M49.891,39.61H18.954v8.841H40.78C43.275,44.999,46.361,42.002,49.891,39.61z M18.954,67.637h15.014   c0.173-3.063,0.725-6.026,1.611-8.841H18.954V67.637z M91.198,91.198c-11.735,11.735-30.763,11.735-42.498,0   c-11.736-11.735-11.736-30.763,0-42.499c11.736-11.735,30.763-11.735,42.499,0C102.934,60.435,102.934,79.463,91.198,91.198z    M51.68,81.967L81.967,51.68c-8.485-5.595-20.01-4.658-27.478,2.81C47.021,61.956,46.085,73.481,51.68,81.967z M88.218,57.931   L57.931,88.218c8.485,5.594,20.01,4.658,27.478-2.81C92.876,77.941,93.813,66.416,88.218,57.931z" display="inline"></path></g><g style="" display="none"><path style="" d="M50.259,100H0V0h73.157v40.82c-1.191-0.131-2.4-0.2-3.626-0.2c-1.775,0-3.516,0.143-5.215,0.414   V8.841H8.841v82.318h33.065C44.118,94.601,46.957,97.6,50.259,100z M18.651,20.653v8.84h37.047v-8.84H18.651z M18.651,39.839v8.841   H47.99c2.308-2.01,4.9-3.701,7.708-5.008v-3.833H18.651z M18.651,67.865h18.536c0.534-3.119,1.507-6.088,2.855-8.841H18.651V67.865   z M90.104,57.015c-4.99-6.168-12.529-9.802-20.504-9.802c-14.539,0-26.367,11.828-26.367,26.368c0,14,10.959,25.552,24.95,26.298   L70.457,100V89.249l-2.002-0.146c-8.096-0.589-14.438-7.408-14.438-15.523c0-8.593,6.991-15.583,15.583-15.583   c3.667,0,7.161,1.282,9.934,3.587l-8.555,3.719l20.762,8.246L100,52.744L90.104,57.015z" display="inline"></path></g><g style="" display="none"><path style="" d="M55.698,29.494H18.651v-8.84h37.047V29.494z M18.651,48.68h33.077v-8.841H18.651V48.68z    M18.651,67.865h26.068v-8.841H18.651V67.865z M73.157,28.913V0H0v100h43.578v-8.841H8.841V8.841h55.476v22.411   c2.504-1.72,5.533-2.338,8.793-2.338H73.157z M100,64.142v30.856c0,2.764-2.241,5.002-5.001,5.002H55.698   c-2.763,0-5.001-2.238-5.001-5.002V64.142c0-2.762,2.238-5,5.001-5h2.535v-9.518c0-8.587,6.987-15.573,15.573-15.573h2.564   c8.586,0,15.572,6.986,15.572,15.573v9.518h3.057C97.759,59.141,100,61.38,100,64.142z M83.816,91.191l-4.265-12.654   c1.495-1.216,2.451-3.068,2.451-5.146c0-3.661-2.968-6.629-6.629-6.629s-6.629,2.968-6.629,6.629c0,2.077,0.956,3.93,2.45,5.146   l-4.265,12.654H83.816z M84.23,47.97c0-4.045-3.291-7.333-7.332-7.333h-3.622c-4.043,0-7.333,3.288-7.333,7.333v10.75H84.23V47.97z   " display="inline"></path></g><g style="" display="none"><path style="" d="M55.698,29.494H18.651v-8.84h37.047V29.494z M18.651,48.68h37.047v-8.841H18.651V48.68z    M18.651,67.865h25.592l11.456-8.841H18.651V67.865z M73.11,0H0v100h35.109l-6.837-8.841H8.841V8.841h55.476v32.245   c1.539-4.102,5.579-7.504,8.793-8.593V0z M95.521,43.715c-6.069-7.985-16.062-10.644-22.276-5.923   c-4.96,3.771-6.022,11.119-3.165,17.995l-37.722,28.67l6.997,9.206l2.923-2.221L48.782,100l7.775-5.91l-6.504-8.556l3.702-2.813   l4.694,6.176l6.324-4.806l-4.692-6.177l16.999-12.919c5.859,4.594,13.226,5.538,18.186,1.77   C101.477,62.042,101.591,51.703,95.521,43.715z M91.526,61.847c-3.442,2.616-9.679,0.444-13.621-4.742   c-3.941-5.186-4.363-11.777-0.922-14.393c3.442-2.616,9.679-0.444,13.621,4.741C94.545,52.641,94.969,59.23,91.526,61.847z" display="inline"></path></g><g style="" display="none"><path style="" d="M74.562,100L48.828,74.266h15.15v-33.47h20.86v33.47H100L74.562,100z M55.698,20.653H18.651v8.84   h37.047V20.653z M55.698,39.839H18.651v8.841h37.047V39.839z M18.651,67.865h37.047v-8.841H18.651V67.865z M8.841,8.841h55.476   v24.634h8.841V0H0v100h62.592l-9.456-8.841H8.841V8.841z" display="inline"></path></g><g style="" display="none"><path style="" d="M74.266,40.796L100,66.53H84.85V100H63.99V66.53H48.828L74.266,40.796z M55.698,20.653H18.651   v8.84h37.047V20.653z M55.698,39.839H18.651v8.841h37.047V39.839z M18.651,67.865h19.825l9.164-8.841H18.651V67.865z M8.841,8.841   h55.476v33.737l8.841-9.204V0H0v100h57.847v-8.841H8.841V8.841z" display="inline"></path></g><g style="" display="none"><path style="" d="M49.503,100H0V0h73.157v31.403h-8.841V8.841H8.841v82.318h31.593   C42.917,94.608,45.989,97.604,49.503,100z M55.85,20.653H18.802v8.84H55.85V20.653z M49.74,39.839H18.802v8.841h21.826   C43.124,45.228,46.209,42.23,49.74,39.839z M18.802,67.865h15.014c0.173-3.063,0.725-6.026,1.611-8.841H18.802V67.865z    M91.198,91.198c-11.736,11.735-30.763,11.735-42.499,0c-11.736-11.735-11.736-30.763,0-42.499   c3.925-3.925,8.667-6.535,13.678-7.835v-4.579h15.143v4.579c5.011,1.3,9.752,3.91,13.678,7.835   C102.934,60.435,102.934,79.463,91.198,91.198z M85.409,54.489c-8.538-8.539-22.381-8.539-30.92,0   c-8.538,8.538-8.538,22.381,0,30.919c8.539,8.539,22.382,8.539,30.92,0C93.947,76.871,93.947,63.027,85.409,54.489z M84.475,69.202   H72.708V54.523c0-1.315-1.066-2.383-2.383-2.383s-2.382,1.067-2.382,2.383v19.446h16.532c1.316,0,2.382-1.067,2.382-2.383   C86.857,70.27,85.791,69.202,84.475,69.202z" display="inline"></path></g><g style="" display="none"><path style="" d="M8.841,91.159h24.886V100H0V0h73.157v34.039h-8.841V8.841H8.841V91.159z M55.698,29.494v-8.84   H18.651v8.84H55.698z M18.651,48.68h15.076v-8.841H18.651V48.68z M18.651,67.865h15.076v-8.841H18.651V67.865z M100,56.588v40.447   c0,1.638-1.328,2.965-2.965,2.965H42.846c-1.638,0-2.965-1.328-2.965-2.965V42.846c0-1.638,1.328-2.965,2.965-2.965h44.818   L100,56.588z M49.772,61.975c0,1.524,1.235,2.76,2.76,2.76h29.601c1.524,0,2.76-1.235,2.76-2.76V47.722   c0-1.524-1.236-2.76-2.76-2.76H52.532c-1.524,0-2.76,1.235-2.76,2.76V61.975z M90.108,69.94H49.772v26.761h40.336V69.94z    M79.99,47.451h-5.531v14.38h5.531V47.451z" display="inline"></path></g><g style="" display="none"><path style="" d="M41.704,100H0V0h73.157v34.039h-8.841V8.841H8.841v82.318h34.376L41.704,100z M18.651,20.653v8.84   h37.047v-8.84H18.651z M18.651,48.68h37.047v-8.841H18.651V48.68z M18.651,67.865h15.076l-8.607-8.841h-6.468V67.865z    M84.092,78.107L87.849,100L68.187,89.663L48.524,100l3.756-21.893L36.373,62.602l21.982-3.194l9.831-19.919l9.831,19.919   L100,62.603L84.092,78.107z M79.335,70.561h-8.18v-8.18h-5.939v8.18h-8.179V76.5h8.179v8.18h5.939V76.5h8.18V70.561z" display="inline"></path></g><g style="" display="none"><path style="" d="M55.083,29.494H18.056v-8.84h37.027V29.494z M55.083,39.839H18.056v8.841h37.027V39.839z    M40.188,73.672l-6.802-6.806l6.802-6.806l-4.264-4.267L29.122,62.6l-6.802-6.806l-4.264,4.267l6.802,6.806l-6.802,6.806   l4.264,4.266l6.802-6.806l6.802,6.806L40.188,73.672z M8.836,8.841h55.445v32.916l8.836-8.873V0H0v100h73.118V70.679l-8.827,9.244   v11.236H8.836V8.841z M99.084,35.824c1.228-1.238,1.219-3.237-0.018-4.464l-5.822-5.778c-1.237-1.228-3.235-1.22-4.462,0.018   l-2.739,2.763l10.302,10.225L99.084,35.824z M93.962,40.979L83.661,30.755L47.279,67.48l10.302,10.224L93.962,40.979z    M41.441,83.664l5.555-1.392l-4.209-4.177L41.441,83.664z M55.037,80.257L44.735,70.033l-1.647,6.815l5.151,5.112L55.037,80.257z" display="inline"></path></g><g style="" display="none"><path style="" d="M55.083,29.494H18.056v-8.841h37.027V29.494z M55.083,39.839H18.056v8.841h37.027V39.839z    M27.603,70.278l-6.678-6.542l-5.689,5.813l12.488,12.233l21.586-21.97L43.5,54.121L27.603,70.278z M8.836,8.841h55.445v32.916   l8.836-8.873V0H0v100h73.117V70.678l-8.826,9.245v11.236H8.836V8.841z M99.085,35.824c1.227-1.238,1.219-3.236-0.018-4.464   l-5.822-5.777c-1.237-1.228-3.235-1.22-4.462,0.018l-2.739,2.763l10.302,10.224L99.085,35.824z M93.962,40.979L83.66,30.755   L47.279,67.48l10.302,10.224L93.962,40.979z M41.441,83.663l5.555-1.392l-4.209-4.178L41.441,83.663z M55.037,80.257L44.735,70.032   l-1.647,6.815l5.151,5.112L55.037,80.257z" display="inline"></path></g><g style="" display="none"><path style="" d="M68.534,29.494H31.487v-8.84h37.047V29.494z M68.534,39.839H31.487v8.841h37.047V39.839z    M86.579,0v100H13.421V0H86.579z M77.738,8.841H22.262v82.318h55.485L77.738,8.841z M65.289,80.886V55.208h-6.534v25.679h-3.666   V61.61h-6.534v19.276H44.89V66.865h-6.534v14.021h-3.312V55.912h-3.557v28.727h37.87v-3.752H65.289z" display="inline"></path></g><g style="" display="none"><path style="" d="M8.841,91.159h38.664V100H0V0h73.157v55.729h-8.841V8.841H8.841V91.159z M55.664,20.653H18.616   v8.84h37.047V20.653z M55.259,39.839H18.616v8.841h36.643V39.839z M18.616,67.865h11.975v-8.841H18.616V67.865z M98.359,59.689   c-1.295-0.477-2.74,0.187-3.219,1.486L87.504,81.89H60.139L53.688,60.22c-0.317-1.063-1.294-1.792-2.403-1.792H39.023   c-1.385,0-2.508,1.123-2.508,2.507c0,1.385,1.123,2.508,2.508,2.508h10.392l6.451,21.669c0.316,1.063,1.294,1.792,2.403,1.792   h30.983c1.051,0,1.989-0.654,2.353-1.64l8.24-22.354C100.323,61.611,99.659,60.169,98.359,59.689z M60.911,88.339   c-3.14,0-5.687,2.546-5.687,5.686c0,3.142,2.547,5.687,5.687,5.687c3.139,0,5.686-2.545,5.686-5.687   C66.597,90.885,64.05,88.339,60.911,88.339z M86.88,88.339c-3.139,0-5.686,2.546-5.686,5.686c0,3.142,2.547,5.687,5.686,5.687   c3.142,0,5.687-2.545,5.687-5.687C92.566,90.885,90.022,88.339,86.88,88.339z M58.454,65.722l3.756,13.483h22.999l5.687-14.15   H58.269L58.454,65.722z" display="inline"></path></g><g style="" display="none"><path style="" d="M68.535,44.394h-9.333v-8.841h9.333V44.394z M68.535,52.663H31.487v8.841h37.047V52.663z    M68.535,69.773H31.487v8.841h37.047V69.773z M86.579,0v100H13.421V0H86.579z M77.738,8.841H22.262v82.318h55.485L77.738,8.841z    M46.967,27.568l-7.195-0.002c-4.575,0-8.284,3.709-8.284,8.285v8.542h4.699v-9.129h1.442v9.129h11.446l0,0h0.002v-9.129h1.441   v9.129h4.7v-8.542C55.218,31.275,51.542,27.568,46.967,27.568z M43.352,12.555c-3.87,0-7.007,3.137-7.007,7.006   c0,3.87,3.137,7.007,7.007,7.007s7.007-3.137,7.007-7.007C50.358,15.691,47.221,12.555,43.352,12.555z" display="inline"></path></g><g style="" display="none"><path style="" d="M76.435,45.492H51.733v-5.903h24.702V45.492z M76.435,13.79H51.733v5.903h24.702V13.79z    M76.435,26.6H51.733v5.903h24.702V26.6z M100,45.128L84.366,100H13.8L1.271,54.341l-1.216-4.43   c-0.221-0.806,0.252-1.46,1.057-1.46h25.364c0.805,0,1.638,0.654,1.86,1.46l1.215,4.43h2.426l3.029-9.213h4.682V0h48.778v45.128   H100z M45.582,5.903v48.438h26.254l1.791,6.524h8.951L82.571,5.903H45.582z M35.782,54.341h3.905v-5.619h-2.058L35.782,54.341z    M95.216,48.722h-6.75v18.047H75.246l7.291,26.565L95.216,48.722z" display="inline"></path></g><g style="" display="none"><path style="" d="M35.005,22.602l-3.029,9.201H29.55l-1.215-4.424c-0.222-0.805-1.055-1.458-1.86-1.458H1.111   c-0.805,0-1.278,0.653-1.057,1.458l1.216,4.424L13.8,77.398h70.566L100,22.602H35.005z M82.537,70.741L71.835,31.803H35.782   l1.847-5.612h57.587L82.537,70.741z" display="inline"></path></g><g style="" display="none"><path style="" d="M31.476,77.197h37.047v7.195H31.476V77.197z M100,42.771c0,0.297,0,27.265,0,27.265   c0,4.885-4.212,8.876-9.375,8.876h-7.027V100H16.408V78.912H9.375C4.218,78.912,0,74.921,0,70.036c0,0,0-26.968,0-27.265   c0-3.78,4.218-6.875,9.375-6.875h2.079v-6.842c0-2.828,2.134-5.209,4.955-5.781V0H62.65l20.947,19.514v3.76   c2.816,0.571,4.945,2.953,4.945,5.781v6.842h2.082C95.788,35.896,100,38.991,100,42.771z M62.569,18.834h13.615L62.569,6.151   V18.834z M25.168,35.896h49.311V23.273H57.883V8.109H25.168V35.896z M74.5,64.411h-5.977v4.149H31.476v-4.149h-6.208v26.903H74.5   V64.411z M92.188,49.549H7.814v20.487c0,0.806,0.712,1.48,1.561,1.48h7.033V58.493h67.189v13.023h7.027   c0.853,0,1.563-0.675,1.563-1.48V49.549z" display="inline"></path></g><g style="" display="none"><path style="" d="M78.84,40.694h-4.015l3.806-35.457L29.836,0l-4.368,40.694H21.16c-2.905,0-5.26,2.259-5.26,5.048   c0,1.627,0.814,3.058,2.059,3.98l3.435,15.343l-0.063,0.061l0.098,0.093l6.505,29.069c-0.583,0.607-0.949,1.412-0.949,2.304   c0,1.882,1.59,3.407,3.551,3.407h38.928c1.961,0,3.552-1.525,3.552-3.407c0-0.892-0.366-1.697-0.95-2.305l9.936-44.534   c1.268-0.921,2.099-2.367,2.099-4.012C84.1,42.953,81.744,40.694,78.84,40.694z M55.025,50.792l-4.853,4.484l-4.854-4.484H55.025z    M36.266,50.792l-5.214,5.004l-5.61-5.004H36.266z M39.832,50.792h1.848l6.673,6.165l-7.862,7.262l-7.592-6.773L39.832,50.792z    M40.521,67.55l7.797,6.958l-7.773,6.936l-7.486-7L40.521,67.55z M42.342,65.87l7.831-7.233l7.829,7.232l-7.829,6.987L42.342,65.87   z M59.822,67.55l7.462,6.893l-7.487,7l-7.774-6.936L59.822,67.55z M51.99,56.956l6.673-6.165h1.849l6.933,6.653l-7.592,6.773   L51.99,56.956z M64.077,50.792h10.824l-5.61,5.004L64.077,50.792z M35.101,6.529l37.001,3.972l-3.235,30.193H31.433L35.101,6.529z    M20.77,50.754c0.132,0.01,0.257,0.038,0.39,0.038h0.577l7.53,6.718l-5.75,5.517L20.77,50.754z M24.29,66.478l-0.141-0.633   l6.965-6.687l7.556,6.742l-7.418,6.852l-6.84-6.395L24.29,66.478z M25.18,70.458l4.253,3.975l-2.786,2.574L25.18,70.458z    M29.787,91.043l-2.519-11.251l3.972-3.668l7.455,6.97L29.787,91.043z M47.24,93.185H31.09l9.414-8.398l7.86,7.348L47.24,93.185z    M42.355,83.135l7.817-6.974l7.817,6.974l-7.817,7.309L42.355,83.135z M53.104,93.185l-1.125-1.051l7.859-7.348l9.414,8.398H53.104   z M70.266,90.783l-8.619-7.689l7.456-6.97l3.676,3.396L70.266,90.783z M73.401,76.733l-2.49-2.3l3.794-3.548L73.401,76.733z    M75.659,66.613l-6.566,6.139l-7.419-6.854l7.556-6.741l6.666,6.398L75.659,66.613z M76.523,62.737l-5.446-5.227l7.53-6.718h0.233   c0.122,0,0.236-0.026,0.357-0.034L76.523,62.737z M65.117,17.721l-0.633,5.896l-24.709-2.652l0.633-5.896L65.117,17.721z    M39.034,27.865l24.71,2.652l-0.633,5.897l-24.709-2.652L39.034,27.865z" display="inline"></path></g><g style="" display="none"><path style="" d="M32.435,77.003h13.652L23.043,100L0,77.003h13.647V0h18.788V77.003z M45.167,0v14.94H100V0H45.167   z M45.167,40.525h42.698V25.594H45.167V40.525z M45.167,66.867h29.505V51.921H45.167V66.867z" display="inline"></path></g><g style="" display="none"><path style="" d="M13.652,22.997H0L23.043,0l23.044,22.997H32.44V100H13.652V22.997z M45.167,33.133v14.941H100   V33.133H45.167z M45.167,73.658h42.698V58.728H45.167V73.658z M45.167,100h29.505V85.055H45.167V100z" display="inline"></path></g><g><path d="M86.438,56.781c0,11.544-4.496,22.398-12.659,30.561C65.617,95.505,54.764,100,43.219,100s-22.397-4.495-30.561-12.659   C4.496,79.179,0,68.325,0,56.781C0,33.845,17.924,14.89,40.806,13.63l0.075-0.004V3.188l16.316,16.315L40.881,35.819V24.184   c-17.023,1.203-30.344,15.503-30.344,32.597c0,18.021,14.661,32.683,32.683,32.683s32.683-14.662,32.683-32.683   c0-5.075-1.122-8.551-1.122-8.551l8.304-8.304C83.083,39.926,86.438,46.491,86.438,56.781z M98.854,13.966   c1.537-1.549,1.527-4.051-0.023-5.588L91.54,1.146c-1.55-1.537-4.051-1.527-5.588,0.023l-3.431,3.459l12.902,12.797L98.854,13.966z    M92.438,20.418L79.537,7.621L33.975,53.59l12.902,12.798L92.438,20.418z M26.663,73.846l6.957-1.743l-5.271-5.229L26.663,73.846z    M43.689,69.582L30.788,56.784l-2.063,8.531l6.451,6.398L43.689,69.582z"></path></g><g style="" display="none"><path style="" d="M41.099,50.906L25.453,35.261L9.808,50.906L0,41.099l15.646-15.646L0,9.808L9.808,0l15.645,15.645   L41.098,0l9.808,9.808L35.261,25.453l15.646,15.646L41.099,50.906z M98.937,44.429c1.426-1.438,1.417-3.76-0.021-5.186   l-6.767-6.712c-1.438-1.426-3.759-1.417-5.186,0.021l-3.184,3.21l11.974,11.876L98.937,44.429z M92.983,50.417L81.009,38.541   L38.726,81.201l11.974,11.877L92.983,50.417z M31.94,100l6.457-1.617l-4.892-4.853L31.94,100z M47.742,96.042L35.768,84.166   l-1.914,7.917l5.987,5.938L47.742,96.042z" display="inline"></path></g><g style="" display="none"><path style="" d="M58.437,0L70.45,11.762l-44.63,45.399L0,31.882l11.762-12.013l13.807,13.518L58.437,0z    M98.937,44.429c1.426-1.438,1.417-3.759-0.021-5.186l-6.767-6.711c-1.438-1.426-3.759-1.417-5.186,0.021l-3.184,3.21   l11.974,11.876L98.937,44.429z M92.983,50.417L81.009,38.541L38.726,81.202l11.974,11.876L92.983,50.417z M31.94,100l6.457-1.617   l-4.893-4.853L31.94,100z M47.742,96.042L35.768,84.166l-1.914,7.917l5.987,5.938L47.742,96.042z" display="inline"></path></g><g style="" display="none"><path style="" d="M50.425,78.857L16.147,44.581h20.179V0h27.785v44.581h20.195L50.425,78.857z M45.902,85.267   l0.175-0.167h-0.345L45.902,85.267z M72.449,0v8.026h19.56l0.199,84.003H8.238V8.026h18.971V0H0v100h100V0H72.449z" display="inline"></path></g><g style="" display="none"><path style="" d="M75.45,61.627l8.255-7.143V100H0V16.351h47.615l-8.45,8.218H8.25v67.19h67.2V61.627z M52.083,0   l14.199,14.361l-40.14,40.603l19.532,19.771l40.14-40.612L100,48.476V0H52.083z M45.675,85.267L45.85,85.1h-0.345L45.675,85.267z" display="inline"></path></g><g style="" display="none"><path style="" d="M7.189,0v0.098V100h80.887V83.888h-7.73v-3.662h7.73V64.113h-7.73v-3.662h7.73V44.339h-7.73   v-3.778h12.465V0.098V0H7.189z M83.972,31.698H71.5v0.022l0.016,59.439H16.03V8.841h67.942V31.698z M62.302,54.42H25.255v-8.841   h37.047V54.42z M62.302,30.644H25.255v-8.841h37.047V30.644z M62.302,78.198H25.255v-8.841h37.047V78.198z" display="inline"></path></g><g style="" display="none"><path style="" d="M62.427,39.121H41.176v-7.391h21.251V39.121z M62.427,47.77H42.575l3.083,7.392h16.769V47.77z    M60.075,62.719H31.454v7.392h20.939L60.075,62.719z M77.513,41.955V14.462H41.184c0.089,0.158,0.185,0.321,0.28,0.483   c0.749,1.278,1.774,3.028,1.774,5.227c0,0.594-0.077,1.154-0.201,1.682h27.084v27.52L77.513,41.955z M16.35,60.479v37.589h61.163   V73.553l-7.383,7.729v9.394H23.741V58.154L20.588,51.4L16.35,60.479z M99.234,44.413c1.026-1.035,1.02-2.706-0.015-3.732   l-4.87-4.831c-1.035-1.026-2.706-1.02-3.732,0.016l-2.292,2.311l8.618,8.548L99.234,44.413z M94.95,48.723l-8.618-8.548   L55.899,70.879l8.618,8.547L94.95,48.723z M51.015,84.409l4.647-1.164l-3.521-3.492L51.015,84.409z M62.388,81.561l-8.618-8.548   l-1.377,5.698l4.309,4.274L62.388,81.561z M41.176,52.802l-8.814-2.236l-4.241,8.33L20.588,42.76l-7.533,16.137l-4.241-8.33   L0,52.802l8.951-19.173c-1.365-0.643-2.892-1.138-3.731-2.291c-1.117-1.535-0.735-3.895-1.334-5.739   c-0.578-1.779-2.293-3.455-2.293-5.427s1.715-3.648,2.293-5.427c0.599-1.844,0.217-4.204,1.334-5.739   c1.128-1.55,3.499-1.911,5.048-3.04c1.535-1.117,2.605-3.266,4.449-3.865c1.779-0.577,3.899,0.513,5.871,0.513   c1.971,0,4.092-1.09,5.871-0.513c1.844,0.599,2.914,2.748,4.449,3.865c1.55,1.128,3.92,1.489,5.048,3.04   c1.117,1.535,0.735,3.895,1.334,5.739c0.578,1.779,2.293,3.456,2.293,5.427s-1.715,3.648-2.293,5.427   c-0.599,1.844-0.217,4.204-1.334,5.739c-0.839,1.153-2.366,1.648-3.731,2.291L41.176,52.802z M8.977,20.172   c0,6.412,5.198,11.61,11.611,11.61s11.611-5.198,11.611-11.61S27,8.561,20.588,8.561S8.977,13.76,8.977,20.172z" display="inline"></path></g></svg>