<svg xmlns="http://www.w3.org/2000/svg" xmlns:xlink="http://www.w3.org/1999/xlink" version="1.1" preserveAspectRatio="none" x="0px" y="0px" viewBox="0 0 100 100"><defs><g id="a"><path fill="#000000" stroke="none" d=" M 75.8 24.15 Q 65.15 13.5 50 13.5 34.85 13.5 24.1 24.15 13.5 34.85 13.5 50 13.5 65.15 24.1 75.85 34.85 86.5 50 86.5 65.15 86.5 75.8 75.85 86.5 65.15 86.5 50 86.5 34.85 75.8 24.15 M 55.35 34.3 Q 57.1 32.55 59.6 32.55 62.05 32.55 63.85 34.3 65.6 36.1 65.6 38.6 65.6 41.05 63.85 42.85 62.05 44.6 59.6 44.6 57.1 44.6 55.35 42.85 55.25 42.75 55.2 42.65 L 42.35 49.2 Q 42.4 49.7 42.4 50.2 42.4 50.7 42.35 51.2 L 55.2 57.6 Q 55.3 57.6 55.35 57.5 57.1 55.7 59.6 55.7 62.05 55.7 63.85 57.5 65.6 59.3 65.6 61.75 65.6 64.25 63.85 66 62.05 67.75 59.6 67.75 57.1 67.75 55.35 66 53.65 64.25 53.65 61.75 53.65 61.35 53.65 61 L 40.4 54.7 Q 38.75 56.2 36.45 56.2 33.95 56.2 32.15 54.45 30.4 52.7 30.4 50.2 30.4 47.7 32.15 45.95 33.95 44.2 36.45 44.2 38.7 44.2 40.3 45.65 L 53.65 39.2 Q 53.65 38.9 53.65 38.6 53.65 36.1 55.35 34.3 Z"></path></g></defs><g transform="matrix( 1, 0, 0, 1, 0,0) "><use xlink:href="#a"></use></g></svg>