<svg height='100px' width='100px'  fill="#000000" xmlns:dc="http://purl.org/dc/elements/1.1/" xmlns:cc="http://creativecommons.org/ns#" xmlns:rdf="http://www.w3.org/1999/02/22-rdf-syntax-ns#" xmlns:svg="http://www.w3.org/2000/svg" xmlns="http://www.w3.org/2000/svg" xmlns:sodipodi="http://sodipodi.sourceforge.net/DTD/sodipodi-0.dtd" xmlns:inkscape="http://www.inkscape.org/namespaces/inkscape" version="1.1" x="0px" y="0px" viewBox="0 0 100 100"><g transform="translate(0,-952.36218)"><path style="color:#000000;enable-background:accumulate;" d="m 49.893386,973.26418 c 5.638157,5.63816 7.395494,13.69413 5.281201,20.83756 l 30.074131,30.07416 0.707114,13.435 -17.677695,-2.1213 2.1e-5,-8.4853 -8.485284,0 -3.1e-5,-8.4852 -8.485257,-10e-5 -10.275117,-10.2752 c -7.143472,2.1144 -15.199443,0.3571 -20.837598,-5.2811 -8.200957,-8.201 -8.200923,-21.49757 1.6e-5,-29.6985 8.200967,-8.20097 21.497521,-8.20099 29.698499,-2e-5 z m -15.556354,5.65687 c -2.34313,-2.34314 -6.142139,-2.34315 -8.485295,10e-6 -2.343136,2.34313 -2.343131,6.14214 0,8.48528 2.34313,2.34314 6.142145,2.34313 8.485286,-10e-6 2.34315,-2.34315 2.343144,-6.14215 9e-6,-8.48528 z" fill="#000000" stroke="none" marker="none" visibility="visible" display="inline" overflow="visible"></path></g></svg>