<svg height='100px' width='100px'  fill="#000000" xmlns:x="http://ns.adobe.com/Extensibility/1.0/" xmlns:i="http://ns.adobe.com/AdobeIllustrator/10.0/" xmlns:graph="http://ns.adobe.com/Graphs/1.0/" xmlns="http://www.w3.org/2000/svg" xmlns:xlink="http://www.w3.org/1999/xlink" version="1.1" x="0px" y="0px" viewBox="0 0 100 100" style="enable-background:new 0 0 100 100;" xml:space="preserve"><g><g i:extraneous="self"><g><path d="M5273.1,2400.1v-2c0-2.8-5-4-9.7-4s-9.7,1.3-9.7,4v2c0,1.8,0.7,3.6,2,4.9l5,4.9c0.3,0.3,0.4,0.6,0.4,1v6.4     c0,0.4,0.2,0.7,0.6,0.8l2.9,0.9c0.5,0.1,1-0.2,1-0.8v-7.2c0-0.4,0.2-0.7,0.4-1l5.1-5C5272.4,2403.7,5273.1,2401.9,5273.1,2400.1z      M5263.4,2400c-4.8,0-7.4-1.3-7.5-1.8v0c0.1-0.5,2.7-1.8,7.5-1.8c4.8,0,7.3,1.3,7.5,1.8C5270.7,2398.7,5268.2,2400,5263.4,2400z"></path><path d="M5268.4,2410.3c-0.6,0-1,0.4-1,1c0,0.6,0.4,1,1,1h4.3c0.6,0,1-0.4,1-1c0-0.6-0.4-1-1-1H5268.4z"></path><path d="M5272.7,2413.7h-4.3c-0.6,0-1,0.4-1,1c0,0.6,0.4,1,1,1h4.3c0.6,0,1-0.4,1-1C5273.7,2414.1,5273.3,2413.7,5272.7,2413.7z"></path><path d="M5272.7,2417h-4.3c-0.6,0-1,0.4-1,1c0,0.6,0.4,1,1,1h4.3c0.6,0,1-0.4,1-1C5273.7,2417.5,5273.3,2417,5272.7,2417z"></path></g><g><path d="M23.8,58.6h-1.6c-1.7,0-3,1.4-3,3c0,1.7,1.4,3,3,3h1.6c1.7,0,3-1.4,3-3C26.8,60,25.5,58.6,23.8,58.6z"></path><path d="M23.8,43.3h-1.6c-1.7,0-3,1.4-3,3s1.4,3,3,3h1.6c1.7,0,3-1.4,3-3S25.5,43.3,23.8,43.3z"></path><path d="M23.8,74h-1.6c-1.7,0-3,1.4-3,3c0,1.7,1.4,3,3,3h1.6c1.7,0,3-1.4,3-3C26.8,75.4,25.5,74,23.8,74z"></path><path d="M59,61.7c0-1.7-1.4-3-3-3H34.1c-1.7,0-3,1.4-3,3c0,1.7,1.4,3,3,3H56C57.7,64.7,59,63.4,59,61.7z"></path><path d="M56,43.3H34.1c-1.7,0-3,1.4-3,3s1.4,3,3,3H56c1.7,0,3-1.4,3-3S57.7,43.3,56,43.3z"></path><path d="M31.1,77c0,1.7,1.4,3,3,3h15.1l1.4-6.1H34.1C32.4,74,31.1,75.3,31.1,77z"></path><path d="M69.5,87.5c0,1-0.8,1.9-1.9,1.9H10.5c-1.1,0-1.9-0.9-1.9-1.9v-75c0-1.1,0.8-1.9,1.9-1.9h35.7v15.4c0,4.4,3.5,7.9,7.9,7.9     h15.4v18.7l6.1-6.1V33c0-2.1-0.8-4.1-2.3-5.6L52.8,6.9c-1.5-1.5-3.5-2.3-5.6-2.3H10.5c-4.4,0-8,3.5-8,7.9v75c0,4.3,3.6,7.9,8,7.9     h57.2c4.4,0,7.9-3.6,7.9-7.9v-9.6L69.5,84V87.5z M52.3,14.9l13,13H54.2c-1.1,0-1.9-0.9-1.9-1.9V14.9z"></path><rect x="61.9" y="56" transform="matrix(0.7071 -0.7071 0.7071 0.7071 -21.6798 71.7744)" width="27.9" height="12"></rect><path d="M56.2,83.8l7.7-1.8c0.3-0.1,0.6-0.2,0.9-0.5l2.2-2.2l-8.5-8.5l-2.2,2.2c-0.2,0.2-0.4,0.5-0.5,0.9l-1.8,7.7     C53.8,82.9,54.9,84.1,56.2,83.8z"></path><path d="M97,46.9l-6-6c-0.7-0.7-1.8-0.7-2.6,0l-3.8,3.8l8.5,8.5l3.8-3.8C97.7,48.7,97.7,47.6,97,46.9z"></path></g></g></g></svg>