<svg height='100px' width='100px'  fill="#000000" xmlns:dc="http://purl.org/dc/elements/1.1/" xmlns:cc="http://creativecommons.org/ns#" xmlns:rdf="http://www.w3.org/1999/02/22-rdf-syntax-ns#" xmlns:svg="http://www.w3.org/2000/svg" xmlns="http://www.w3.org/2000/svg" xmlns:sodipodi="http://sodipodi.sourceforge.net/DTD/sodipodi-0.dtd" xmlns:inkscape="http://www.inkscape.org/namespaces/inkscape" version="1.1" x="0px" y="0px" viewBox="0 0 100 100"><g transform="translate(0,-952.36218)"><path style="text-indent:0;text-transform:none;direction:ltr;block-progression:tb;baseline-shift:baseline;color:#000000;enable-background:accumulate;" d="m 77.177043,958.36079 a 2.9998593,3.0003475 0 0 0 -1.780988,0.87501 l -64.677999,64.6885 a 2.9998593,3.0003475 0 0 0 -0.8123806,1.5 L 6.06249,1042.7059 a 2.9998593,3.0003475 0 0 0 3.5932221,3.5625 l 17.2474659,-3.8125 a 2.9998593,3.0003475 0 0 0 1.49978,-0.8125 l 64.709244,-64.71982 a 2.9998593,3.0003475 0 0 0 0,-4.25007 L 79.645431,959.2358 a 2.9998593,3.0003475 0 0 0 -2.468388,-0.87501 z m 0.3437,7.21886 9.217396,9.2189 -3.936922,3.93756 -9.217396,-9.2189 3.936922,-3.93756 z m -8.155052,8.15638 9.18615,9.25015 -49.336502,49.34452 -9.217396,-9.2189 49.367748,-49.37577 z m -53.617124,53.62587 9.248641,9.1876 -0.218717,0.2188 -11.842011,2.625 2.624615,-11.8439 0.187472,-0.1875 z" fill="#000000" fill-opacity="1" stroke="none" marker="none" visibility="visible" display="inline" overflow="visible"></path></g></svg>