<svg height='100px' width='100px'  fill="#000000" xmlns="http://www.w3.org/2000/svg" xmlns:xlink="http://www.w3.org/1999/xlink" viewBox="0 0 24 24" version="1.1" x="0px" y="0px"><title>icon/process-map</title><desc>Created with Sketch.</desc><g stroke="none" stroke-width="1" fill="none" fill-rule="evenodd"><polygon fill="#000000" points="22 8 22 2 16 2 16 4 11 4 11 11 8 11 8 9 2 9 2 15 8 15 8 13 11 13 11 20 16 20 16 22 22 22 22 16 16 16 16 18 13 18 13 13 16 13 16 15 22 15 22 9 16 9 16 11 13 11 13 6 16 6 16 8"></polygon></g></svg>