<svg height='100px' width='100px'  fill="#000000" xmlns="http://www.w3.org/2000/svg" xmlns:xlink="http://www.w3.org/1999/xlink" version="1.1" x="0px" y="0px" viewBox="0 0 100 100" enable-background="new 0 0 100 100" xml:space="preserve"><g><path d="M50,3.5C24.3,3.5,3.5,24.3,3.5,50c0,25.7,20.9,46.5,46.5,46.5S96.5,75.7,96.5,50C96.5,24.3,75.7,3.5,50,3.5z M76.2,74   c-6.9-5-13.3-8.2-14.8-9c-0.2-0.1-0.3-0.3-0.3-0.5c0-1.1,0-4.1,0-5.6c0.8-1.7,1.3-3.6,1.6-5.3c0.8,0.5,2,0.2,3.4-4.7   c1.1-4,0.4-5.3-0.5-5.7c3.2-15.1-4.1-15.7-4.1-15.7s-1.1-2.1-4-3.7c-1.9-1.1-4.6-2-8.1-1.7c-1.1,0.1-2.2,0.3-3.2,0.6l0,0   c-1.3,0.4-2.5,1.1-3.6,1.8c-1.3,0.8-2.6,1.9-3.7,3c-1.7,1.8-3.3,4.1-4,7c-0.6,2.4-0.6,5.1,0.3,7.8c-1.3-0.1-2.8,0.6-1.4,5.7   c1.1,3.7,2,4.8,2.8,4.8c0.3,2.1,1,4.5,2.3,6.7l0,3.5v1.4c0,0.2-0.1,0.4-0.3,0.5c-1.5,0.7-7.9,4-14.8,8.9c-5.8-6.3-9.3-14.7-9.3-24   c0-19.6,15.9-35.5,35.5-35.5S85.5,30.4,85.5,50C85.5,59.2,82,67.7,76.2,74z"></path></g></svg>